<?xml version="1.0" standalone="no"?>
<!DOCTYPE svg PUBLIC "-//W3C//DTD SVG 20010904//EN"
 "http://www.w3.org/TR/2001/REC-SVG-20010904/DTD/svg10.dtd">
<svg version="1.0" xmlns="http://www.w3.org/2000/svg"
 width="162.000000pt" height="162.000000pt" viewBox="0 0 162.000000 162.000000"
 preserveAspectRatio="xMidYMid meet">
<metadata>
Created by potrace 1.11, written by Peter Selinger 2001-2013
</metadata>
<g transform="translate(0.000000,162.000000) scale(0.100000,-0.100000)"
fill="#000000" stroke="none">
<path d="M700 1544 c-160 -30 -258 -66 -359 -132 -170 -111 -290 -278 -327
-460 -21 -101 -15 -262 15 -352 59 -185 204 -346 396 -441 97 -48 133 -59 120
-39 -3 6 -15 10 -25 10 -32 0 -35 22 -6 42 14 11 31 29 37 40 10 18 8 19 -23
16 -27 -2 -33 0 -33 16 0 27 -18 30 -40 6 -23 -25 -31 -25 -38 0 -3 12 -14 20
-26 20 -34 0 -25 28 11 32 26 2 29 5 17 15 -12 10 -22 7 -53 -13 -21 -14 -39
-24 -40 -22 -2 1 -6 23 -10 47 l-7 43 31 -4 c36 -5 39 4 5 26 -23 15 -25 15
-36 -5 -7 -14 -17 -19 -31 -16 -14 4 -22 0 -25 -14 -8 -30 -20 -22 -26 18 -8
47 -3 51 32 30 32 -19 41 -21 41 -9 0 5 -12 13 -28 19 -27 11 -27 11 -4 18 12
4 22 11 22 15 0 18 -36 19 -77 4 -24 -9 -45 -15 -47 -13 -3 2 1 21 7 42 12 39
25 44 58 26 18 -9 19 -8 10 9 -23 42 4 29 36 -18 54 -80 285 -253 314 -234 5
2 16 0 26 -5 10 -6 35 -17 56 -25 l38 -15 -20 -23 c-12 -12 -21 -30 -21 -39 0
-32 -20 -31 -50 1 -36 39 -38 50 -6 50 14 0 28 5 31 10 4 6 -6 10 -24 10 -40
0 -76 -49 -65 -88 4 -15 7 -30 6 -34 -3 -13 95 -30 208 -35 143 -6 254 11 373
60 231 94 407 286 462 503 20 81 20 267 0 344 -67 257 -287 466 -570 541 -78
20 -276 34 -335 23z m148 -33 c-13 -4 -15 -10 -8 -21 13 -20 12 -50 -1 -50 -6
0 -8 9 -4 20 4 14 2 20 -9 20 -10 0 -13 -7 -10 -24 2 -14 0 -28 -6 -31 -5 -3
-10 -1 -10 5 0 6 -12 15 -26 21 l-27 10 23 24 23 25 -29 1 c-24 2 -22 3 11 8
47 7 100 1 73 -8z m190 -21 c36 -11 41 -16 36 -34 -4 -12 -10 -36 -15 -54 -10
-46 -23 -55 -15 -11 8 43 -2 56 -22 28 -11 -16 -17 -18 -28 -8 -8 7 -14 22
-12 33 2 17 9 21 37 18 41 -3 37 5 -8 18 -30 8 -61 -6 -61 -30 0 -5 -3 -16 -6
-25 -5 -12 -2 -16 12 -13 11 2 20 -4 22 -14 6 -28 -27 -21 -40 8 -9 19 -9 33
0 57 8 21 9 33 2 35 -5 2 -10 7 -10 12 0 8 36 2 108 -20z m-452 -60 c6 -33 9
-60 7 -60 -2 0 -11 4 -21 9 -9 5 -25 12 -35 15 -10 3 -15 11 -11 17 3 6 1 15
-6 19 -19 11 -4 40 20 40 11 0 20 5 20 10 0 6 4 10 8 10 5 0 13 -27 18 -60z
m634 -25 c41 -26 50 -47 12 -26 -27 14 -52 14 -52 0 0 -6 6 -9 14 -6 19 8 55
-20 40 -30 -6 -5 -19 -21 -28 -38 -11 -21 -16 -24 -14 -10 2 12 -5 24 -17 30
-16 8 -21 22 -23 64 -4 60 -3 61 68 16z m-771 -43 c16 -65 8 -79 -10 -21 -8
24 -20 44 -26 47 -10 3 -9 -7 2 -38 20 -56 19 -70 -4 -41 l-18 24 -6 -23 c-6
-23 -32 -23 -32 0 0 10 20 27 43 36 1 1 0 9 -4 18 -6 15 -9 15 -30 -5 -13 -12
-27 -19 -31 -15 -4 3 3 14 16 22 12 9 34 26 49 39 15 13 30 21 33 17 3 -4 11
-31 18 -60z m491 -30 c36 -7 103 -32 150 -54 231 -111 353 -355 294 -590 -27
-109 -149 -287 -177 -259 -14 14 -77 14 -77 1 0 -5 16 -10 35 -10 19 0 35 -4
35 -10 0 -5 -35 -30 -77 -55 -43 -26 -71 -45 -63 -44 27 3 40 -1 40 -12 0 -7
-9 -9 -22 -6 -25 7 -48 -8 -48 -30 0 -10 6 -12 23 -7 12 4 30 8 40 8 9 0 17 4
17 8 0 4 7 8 15 8 7 0 18 6 22 13 8 11 74 65 100 80 7 5 26 -7 47 -30 41 -44
44 -53 16 -53 -11 0 -20 -5 -20 -11 0 -6 -10 -9 -22 -7 -18 2 -22 8 -20 27 3
21 1 23 -25 17 -40 -10 -53 -26 -20 -26 30 0 51 -30 42 -60 -9 -28 -31 -25
-62 10 -26 30 -57 43 -33 15 11 -13 10 -18 -6 -30 -27 -20 -44 -18 -44 5 0 24
-28 27 -37 4 -3 -9 2 -31 11 -50 18 -40 19 -44 8 -44 -5 0 -17 17 -28 38 -10
20 -27 50 -38 65 -17 27 -17 29 -1 48 21 22 16 24 -20 7 -21 -10 -28 -9 -35 2
-10 17 -72 18 -78 2 -2 -8 9 -12 30 -13 31 -1 31 -1 8 -9 -32 -10 -175 -10
-215 0 l-30 8 32 1 c37 1 55 20 21 23 -52 3 -63 1 -61 -10 4 -17 -8 -15 -73 9
-65 25 -174 87 -174 100 0 5 16 9 35 9 19 0 35 5 35 10 0 6 -18 10 -40 10 -23
0 -40 -5 -40 -11 0 -8 -5 -8 -15 1 -18 15 -20 31 -2 29 30 -4 58 2 52 11 -9
15 -75 13 -75 -2 -1 -19 -57 50 -86 105 -13 26 -22 52 -20 56 3 5 25 6 50 4
28 -4 46 -1 51 7 5 9 -8 11 -54 8 -42 -2 -62 1 -66 10 -5 14 3 16 62 12 34 -1
43 2 43 14 0 14 -9 15 -53 10 -43 -5 -55 -3 -60 9 -4 10 2 17 16 22 22 7 22 7
-3 14 -22 6 -25 13 -28 54 -2 27 6 83 17 126 36 143 113 249 234 325 153 95
305 124 467 88z m-654 -69 c21 -28 18 -63 -6 -63 -18 0 -19 -3 -10 -20 9 -17
8 -20 -8 -20 -10 0 -23 -5 -30 -12 -9 -9 -12 -6 -12 15 0 19 -4 25 -15 21 -23
-9 -18 5 18 52 36 48 44 52 63 27z m1124 -45 c33 -46 38 -60 15 -52 -8 4 -16
1 -16 -5 -1 -6 -3 -15 -4 -21 -1 -5 -3 -14 -4 -20 0 -5 -8 -7 -16 -4 -9 4 -16
-3 -21 -20 -5 -21 -9 -24 -20 -15 -8 6 -14 20 -14 31 0 15 5 18 21 13 19 -6
20 -4 13 31 -7 36 -6 37 20 32 17 -4 25 -1 23 6 -2 6 -13 12 -25 14 -12 2 -22
8 -22 13 0 6 5 7 11 3 8 -4 9 0 4 15 -10 32 2 25 35 -21z m-1259 -136 c-9 -17
-8 -19 9 -15 16 4 20 0 19 -18 0 -22 -1 -22 -8 -5 -6 15 -9 17 -16 6 -5 -9 1
-21 18 -36 15 -13 27 -28 27 -34 0 -5 8 -10 18 -10 14 0 15 -2 2 -10 -21 -14
-30 -12 -30 4 0 23 -22 31 -35 13 -18 -25 -25 -21 -26 16 0 29 -1 30 -9 10 -5
-13 -12 -23 -15 -23 -8 0 2 33 26 89 11 24 22 42 25 38 3 -3 1 -14 -5 -25z
m1364 -89 c4 -23 3 -33 -5 -33 -7 0 -21 -11 -32 -26 -28 -35 -35 -22 -8 15 21
31 21 31 1 31 -17 0 -21 6 -21 35 0 24 5 35 15 35 8 0 15 -7 15 -16 0 -8 -4
-12 -10 -9 -5 3 -10 2 -10 -3 0 -5 9 -12 21 -15 15 -4 19 -2 15 10 -3 8 -8 27
-11 41 -5 26 -5 26 9 -3 7 -16 17 -45 21 -62z m-1399 -177 c3 -8 19 -17 36
-20 27 -5 29 -8 17 -23 -8 -9 -13 -23 -11 -32 2 -13 -8 -16 -53 -17 -48 0 -54
2 -50 17 4 12 -2 22 -17 30 -23 12 -23 13 10 21 18 5 35 15 39 23 7 19 22 19
29 1z m1410 0 c3 -8 19 -18 36 -21 27 -6 28 -8 13 -25 -8 -9 -13 -23 -10 -31
4 -11 -7 -14 -50 -15 -46 0 -55 3 -50 15 4 9 -3 22 -17 33 -22 17 -22 18 -3
19 11 1 23 1 27 0 5 0 13 8 20 19 15 24 27 25 34 6z m-114 -278 c13 -7 30 -19
38 -26 8 -7 24 -19 35 -27 20 -14 20 -14 0 -15 -12 0 -26 5 -32 11 -7 7 -9 3
-6 -15 7 -33 -21 -36 -32 -3 -6 19 -8 19 -12 5 -5 -20 -8 -21 -41 -12 -25 7
-23 28 4 72 17 26 15 25 46 10z m-38 -119 c26 -17 46 -34 46 -38 0 -5 -21 -11
-47 -14 -50 -5 -66 4 -55 32 5 14 3 14 -11 3 -28 -24 -40 -9 -17 21 12 15 25
27 30 27 5 0 29 -14 54 -31z m-1079 -99 c3 -5 1 -10 -4 -10 -6 0 -11 5 -11 10
0 6 2 10 4 10 3 0 8 -4 11 -10z m709 -144 c11 -33 14 -52 7 -59 -7 -7 -14 -1
-21 17 -5 15 -10 32 -10 37 0 16 -15 10 -28 -11 -13 -21 -42 -28 -42 -10 0 6
-6 10 -14 10 -8 0 -16 6 -19 14 -9 23 16 47 51 48 22 1 32 6 32 17 0 28 27
-10 44 -63z m-221 -50 c5 -12 -10 -36 -22 -36 -4 0 -7 11 -7 25 -2 27 20 35
29 11z"/>
<path d="M780 1471 c0 -6 5 -13 10 -16 6 -3 10 1 10 9 0 9 -4 16 -10 16 -5 0
-10 -4 -10 -9z"/>
<path d="M990 1440 c0 -5 4 -10 9 -10 6 0 13 5 16 10 3 6 -1 10 -9 10 -9 0
-16 -4 -16 -10z"/>
<path d="M557 1425 c-4 -8 -2 -17 3 -20 6 -4 10 3 10 14 0 25 -6 27 -13 6z"/>
<path d="M1160 1404 c0 -8 5 -12 10 -9 6 4 8 11 5 16 -9 14 -15 11 -15 -7z"/>
<path d="M1167 1349 c7 -7 15 -10 18 -7 3 3 -2 9 -12 12 -14 6 -15 5 -6 -5z"/>
<path d="M860 1279 c0 -5 5 -7 10 -4 6 3 10 8 10 11 0 2 -4 4 -10 4 -5 0 -10
-5 -10 -11z"/>
<path d="M891 1258 c0 -16 2 -18 6 -8 3 8 11 18 17 22 7 5 4 8 -6 8 -12 0 -18
-7 -17 -22z"/>
<path d="M978 1273 c-24 -6 -23 -22 1 -20 11 0 18 4 15 8 -2 4 2 10 8 12 16 7
0 6 -24 0z"/>
<path d="M568 1243 c-21 -9 -38 -20 -38 -26 0 -5 6 -5 14 2 7 6 22 8 31 4 13
-4 16 -3 11 5 -4 7 -1 12 8 12 9 0 16 5 16 10 0 6 -1 10 -2 9 -2 -1 -20 -8
-40 -16z"/>
<path d="M710 1250 c0 -5 4 -10 9 -10 6 0 13 5 16 10 3 6 -1 10 -9 10 -9 0
-16 -4 -16 -10z"/>
<path d="M915 1250 c4 -6 11 -8 16 -5 14 9 11 15 -7 15 -8 0 -12 -5 -9 -10z"/>
<path d="M1030 1232 c0 -5 11 -14 25 -20 29 -14 34 2 6 18 -24 12 -31 13 -31
2z"/>
<path d="M466 1185 c-11 -8 -16 -18 -12 -22 4 -5 15 1 23 12 11 14 17 16 20 8
5 -15 33 -18 33 -4 0 8 -24 21 -38 21 -4 0 -16 -7 -26 -15z"/>
<path d="M1110 1171 c0 -5 7 -11 14 -14 10 -4 13 -1 9 9 -6 15 -23 19 -23 5z"/>
<path d="M1156 1153 c-6 -14 -5 -15 5 -6 7 7 10 15 7 18 -3 3 -9 -2 -12 -12z"/>
<path d="M796 1085 c-16 -153 -31 -162 -102 -55 -26 39 -49 69 -51 66 -2 -2 5
-37 17 -77 11 -40 20 -75 20 -76 0 -1 -8 -7 -18 -12 -14 -8 -32 -1 -80 29 -34
22 -62 37 -62 34 0 -4 16 -28 35 -54 34 -47 34 -47 15 -65 -20 -18 -28 -17
-135 11 -12 3 3 -15 34 -43 50 -45 53 -51 42 -72 -8 -14 -10 -37 -6 -57 6 -32
8 -34 47 -34 32 0 39 3 34 15 -3 8 -1 15 4 15 6 0 10 -7 10 -15 0 -10 11 -15
35 -15 24 0 35 5 35 15 0 10 10 15 30 15 20 0 30 -5 30 -15 0 -10 10 -15 30
-15 20 0 30 5 30 15 0 8 5 15 10 15 6 0 10 -7 10 -16 0 -11 8 -14 33 -12 19 2
31 8 29 16 -1 6 2 12 8 12 5 0 10 -7 10 -15 0 -10 10 -15 30 -15 20 0 30 5 30
15 0 8 7 15 15 15 9 0 12 -6 9 -15 -5 -12 2 -15 30 -15 25 0 36 5 36 14 0 11
14 16 48 18 l47 3 -3 43 c-4 39 0 45 45 88 26 25 41 43 33 40 -8 -2 -39 -13
-68 -22 -51 -17 -53 -17 -72 2 -20 20 -20 20 20 74 22 29 40 55 40 57 0 5 -16
-5 -73 -45 -47 -34 -77 -37 -77 -8 0 8 7 47 15 87 9 40 14 74 12 76 -3 2 -24
-30 -48 -72 -40 -71 -45 -76 -74 -73 -29 3 -30 5 -50 96 -11 50 -22 92 -26 92
-3 0 -9 -29 -13 -65z"/>
<path d="M292 742 c-27 -9 -9 -22 28 -22 22 0 40 4 40 9 0 10 -50 19 -68 13z"/>
<path d="M1172 742 c-7 -2 -12 -8 -12 -13 0 -12 67 -12 74 0 6 9 -43 20 -62
13z"/>
<path d="M1275 741 c-14 -13 -1 -21 35 -21 22 0 40 4 40 9 0 9 -67 20 -75 12z"/>
<path d="M400 730 c0 -5 18 -10 40 -10 22 0 40 5 40 10 0 6 -18 10 -40 10 -22
0 -40 -4 -40 -10z"/>
<path d="M1370 729 c0 -5 5 -7 10 -4 6 3 10 8 10 11 0 2 -4 4 -10 4 -5 0 -10
-5 -10 -11z"/>
<path d="M400 690 c0 -5 18 -10 40 -10 22 0 40 5 40 10 0 6 -18 10 -40 10 -22
0 -40 -4 -40 -10z"/>
<path d="M1060 690 c0 -5 18 -10 41 -10 24 0 38 4 34 10 -3 6 -22 10 -41 10
-19 0 -34 -4 -34 -10z"/>
<path d="M1160 690 c0 -5 18 -10 41 -10 24 0 38 4 34 10 -3 6 -22 10 -41 10
-19 0 -34 -4 -34 -10z"/>
<path d="M1270 690 c0 -5 18 -10 40 -10 22 0 40 5 40 10 0 6 -18 10 -40 10
-22 0 -40 -4 -40 -10z"/>
<path d="M755 660 c-3 -5 -1 -10 4 -10 6 0 11 5 11 10 0 6 -2 10 -4 10 -3 0
-8 -4 -11 -10z"/>
<path d="M630 650 c0 -5 5 -10 11 -10 5 0 7 5 4 10 -3 6 -8 10 -11 10 -2 0 -4
-4 -4 -10z"/>
<path d="M400 640 c0 -5 18 -10 40 -10 22 0 40 5 40 10 0 6 -18 10 -40 10 -22
0 -40 -4 -40 -10z"/>
<path d="M510 640 c0 -5 18 -10 40 -10 22 0 40 5 40 10 0 6 -18 10 -40 10 -22
0 -40 -4 -40 -10z"/>
<path d="M1060 640 c0 -5 18 -10 40 -10 22 0 40 5 40 10 0 6 -18 10 -40 10
-22 0 -40 -4 -40 -10z"/>
<path d="M1160 640 c0 -5 18 -10 40 -10 22 0 40 5 40 10 0 6 -18 10 -40 10
-22 0 -40 -4 -40 -10z"/>
<path d="M1270 640 c0 -5 18 -10 40 -10 22 0 40 5 40 10 0 6 -18 10 -40 10
-22 0 -40 -4 -40 -10z"/>
<path d="M280 600 c0 -5 9 -10 21 -10 11 0 17 5 14 10 -3 6 -13 10 -21 10 -8
0 -14 -4 -14 -10z"/>
<path d="M330 600 c0 -5 18 -10 40 -10 22 0 40 5 40 10 0 6 -18 10 -40 10 -22
0 -40 -4 -40 -10z"/>
<path d="M450 600 c0 -5 18 -10 40 -10 22 0 40 5 40 10 0 6 -18 10 -40 10 -22
0 -40 -4 -40 -10z"/>
<path d="M552 599 c2 -6 7 -10 11 -10 4 1 21 1 37 1 17 0 30 5 30 10 0 6 -18
10 -41 10 -25 0 -39 -4 -37 -11z"/>
<path d="M650 600 c0 -5 18 -10 40 -10 22 0 40 5 40 10 0 6 -18 10 -40 10 -22
0 -40 -4 -40 -10z"/>
<path d="M750 600 c0 -5 14 -10 30 -10 17 0 33 0 37 -1 4 0 9 4 11 10 2 7 -12
11 -37 11 -23 0 -41 -4 -41 -10z"/>
<path d="M855 600 c-4 -6 10 -10 34 -10 23 0 41 5 41 10 0 6 -15 10 -34 10
-19 0 -38 -4 -41 -10z"/>
<path d="M950 600 c0 -5 18 -10 40 -10 22 0 40 5 40 10 0 6 -18 10 -40 10 -22
0 -40 -4 -40 -10z"/>
<path d="M1050 600 c0 -5 18 -10 40 -10 22 0 40 5 40 10 0 6 -18 10 -40 10
-22 0 -40 -4 -40 -10z"/>
<path d="M1150 600 c0 -5 18 -10 40 -10 22 0 40 5 40 10 0 6 -18 10 -40 10
-22 0 -40 -4 -40 -10z"/>
<path d="M1250 600 c0 -5 18 -10 40 -10 22 0 40 5 40 10 0 6 -18 10 -40 10
-22 0 -40 -4 -40 -10z"/>
<path d="M320 550 c0 -5 18 -10 40 -10 22 0 40 5 40 10 0 6 -18 10 -40 10 -22
0 -40 -4 -40 -10z"/>
<path d="M420 550 c0 -5 18 -10 40 -10 22 0 40 5 40 10 0 6 -18 10 -40 10 -22
0 -40 -4 -40 -10z"/>
<path d="M520 550 c0 -5 18 -10 40 -10 22 0 40 5 40 10 0 6 -18 10 -40 10 -22
0 -40 -4 -40 -10z"/>
<path d="M620 550 c0 -5 18 -10 40 -10 22 0 40 5 40 10 0 6 -18 10 -40 10 -22
0 -40 -4 -40 -10z"/>
<path d="M720 550 c0 -5 18 -10 40 -10 22 0 40 5 40 10 0 6 -18 10 -40 10 -22
0 -40 -4 -40 -10z"/>
<path d="M820 550 c0 -5 18 -10 40 -10 22 0 40 5 40 10 0 6 -18 10 -40 10 -22
0 -40 -4 -40 -10z"/>
<path d="M925 550 c3 -5 22 -10 41 -10 19 0 34 5 34 10 0 6 -18 10 -41 10 -24
0 -38 -4 -34 -10z"/>
<path d="M1030 550 c0 -5 18 -10 40 -10 22 0 40 5 40 10 0 6 -18 10 -40 10
-22 0 -40 -4 -40 -10z"/>
<path d="M1130 550 c0 -5 18 -10 40 -10 22 0 40 5 40 10 0 6 -18 10 -40 10
-22 0 -40 -4 -40 -10z"/>
<path d="M1230 550 c0 -5 18 -10 40 -10 22 0 40 5 40 10 0 6 -18 10 -40 10
-22 0 -40 -4 -40 -10z"/>
<path d="M370 510 c0 -5 18 -10 40 -10 22 0 40 5 40 10 0 6 -18 10 -40 10 -22
0 -40 -4 -40 -10z"/>
<path d="M470 510 c0 -5 18 -10 40 -10 22 0 40 5 40 10 0 6 -18 10 -40 10 -22
0 -40 -4 -40 -10z"/>
<path d="M570 510 c0 -5 18 -10 40 -10 22 0 40 5 40 10 0 6 -18 10 -40 10 -22
0 -40 -4 -40 -10z"/>
<path d="M680 510 c0 -5 18 -10 40 -10 22 0 40 5 40 10 0 6 -18 10 -40 10 -22
0 -40 -4 -40 -10z"/>
<path d="M780 510 c0 -5 18 -10 40 -10 22 0 40 5 40 10 0 6 -18 10 -40 10 -22
0 -40 -4 -40 -10z"/>
<path d="M880 510 c0 -5 18 -10 40 -10 22 0 40 5 40 10 0 6 -18 10 -40 10 -22
0 -40 -4 -40 -10z"/>
<path d="M990 510 c0 -5 18 -10 40 -10 22 0 40 5 40 10 0 6 -18 10 -40 10 -22
0 -40 -4 -40 -10z"/>
<path d="M1090 510 c0 -5 18 -10 40 -10 22 0 40 5 40 10 0 6 -18 10 -40 10
-22 0 -40 -4 -40 -10z"/>
<path d="M1200 510 c0 -5 18 -10 40 -10 22 0 40 5 40 10 0 6 -18 10 -40 10
-22 0 -40 -4 -40 -10z"/>
<path d="M470 466 c0 -9 11 -12 33 -11 48 4 49 4 42 15 -10 16 -75 12 -75 -4z"/>
<path d="M562 469 c5 -15 66 -19 70 -4 2 6 -14 11 -36 13 -27 2 -37 0 -34 -9z"/>
<path d="M655 470 c-3 -5 -5 -10 -3 -11 40 -7 78 -4 78 8 0 15 -65 18 -75 3z"/>
<path d="M755 470 c-7 -12 -9 -11 34 -13 20 -1 36 3 38 11 6 15 -63 17 -72 2z"/>
<path d="M856 473 c-16 -17 28 -20 162 -14 7 1 11 5 7 10 -6 10 -159 13 -169
4z"/>
<path d="M1042 468 c5 -15 67 -18 71 -3 1 6 -15 11 -37 13 -28 3 -37 0 -34
-10z"/>
<path d="M1130 467 c0 -8 11 -12 28 -11 15 1 33 3 40 3 7 1 10 6 7 11 -9 15
-75 13 -75 -3z"/>
<path d="M1220 470 c0 -5 7 -10 15 -10 8 0 15 5 15 10 0 6 -7 10 -15 10 -8 0
-15 -4 -15 -10z"/>
<path d="M520 430 c0 -5 18 -10 40 -10 22 0 40 5 40 10 0 6 -18 10 -40 10 -22
0 -40 -4 -40 -10z"/>
<path d="M620 430 c0 -5 18 -10 40 -10 22 0 40 5 40 10 0 6 -18 10 -40 10 -22
0 -40 -4 -40 -10z"/>
<path d="M720 430 c0 -5 18 -10 40 -10 22 0 40 5 40 10 0 6 -18 10 -40 10 -22
0 -40 -4 -40 -10z"/>
<path d="M820 430 c0 -5 18 -10 40 -10 22 0 40 5 40 10 0 6 -18 10 -40 10 -22
0 -40 -4 -40 -10z"/>
<path d="M925 430 c-4 -6 10 -10 34 -10 23 0 41 5 41 10 0 6 -15 10 -34 10
-19 0 -38 -4 -41 -10z"/>
<path d="M1020 430 c0 -5 18 -10 40 -10 22 0 40 5 40 10 0 6 -18 10 -40 10
-22 0 -40 -4 -40 -10z"/>
<path d="M480 391 c0 -5 8 -11 18 -13 26 -6 63 3 56 13 -7 12 -74 12 -74 0z"/>
<path d="M582 389 c2 -6 7 -10 11 -10 4 1 21 1 37 1 17 0 30 5 30 10 0 6 -18
10 -41 10 -25 0 -39 -4 -37 -11z"/>
<path d="M680 390 c0 -5 18 -10 40 -10 22 0 40 5 40 10 0 6 -18 10 -40 10 -22
0 -40 -4 -40 -10z"/>
<path d="M780 390 c0 -5 18 -10 41 -10 24 0 38 4 34 10 -3 6 -22 10 -41 10
-19 0 -34 -4 -34 -10z"/>
<path d="M870 390 c0 -5 18 -10 40 -10 22 0 40 5 40 10 0 6 -18 10 -40 10 -22
0 -40 -4 -40 -10z"/>
<path d="M970 387 c0 -9 12 -11 40 -9 48 5 43 22 -6 22 -21 0 -34 -5 -34 -13z"/>
<path d="M1060 390 c0 -5 18 -10 41 -10 24 0 38 4 34 10 -3 6 -22 10 -41 10
-19 0 -34 -4 -34 -10z"/>
<path d="M555 350 c-7 -12 -9 -11 38 -15 27 -2 37 1 37 11 0 16 -65 20 -75 4z"/>
<path d="M665 350 c-3 -5 0 -13 8 -16 20 -7 67 0 70 12 3 13 -70 17 -78 4z"/>
<path d="M775 350 c-8 -12 -8 -12 38 -15 25 -1 37 2 37 11 0 16 -65 20 -75 4z"/>
<path d="M880 347 c0 -10 12 -13 37 -12 52 3 55 25 4 25 -28 0 -41 -4 -41 -13z"/>
<path d="M990 350 c0 -16 27 -23 55 -16 39 10 29 26 -15 26 -22 0 -40 -5 -40
-10z"/>
<path d="M1235 340 c-3 -5 2 -10 12 -10 11 0 25 -6 33 -12 8 -7 6 -3 -4 10
-21 24 -32 27 -41 12z"/>
<path d="M782 312 c-7 -2 -12 -8 -12 -13 0 -12 67 -12 75 1 3 6 3 10 -2 11 -4
0 -17 2 -28 3 -12 1 -26 1 -33 -2z"/>
<path d="M1200 251 c13 -25 33 -28 28 -4 -2 10 -11 19 -21 21 -16 3 -17 1 -7
-17z"/>
<path d="M261 1243 c-1 -12 4 -25 9 -28 12 -7 12 2 0 30 -8 19 -9 19 -9 -2z"/>
<path d="M220 1210 c0 -5 5 -10 10 -10 6 0 10 5 10 10 0 6 -4 10 -10 10 -5 0
-10 -4 -10 -10z"/>
<path d="M235 1180 c-3 -5 1 -10 10 -10 9 0 13 5 10 10 -3 6 -8 10 -10 10 -2
0 -7 -4 -10 -10z"/>
<path d="M140 1006 c0 -9 5 -16 10 -16 6 0 10 4 10 9 0 6 -4 13 -10 16 -5 3
-10 -1 -10 -9z"/>
<path d="M1348 393 c7 -3 16 -2 19 1 4 3 -2 6 -13 5 -11 0 -14 -3 -6 -6z"/>
<path d="M920 190 c0 -5 5 -10 10 -10 6 0 10 5 10 10 0 6 -4 10 -10 10 -5 0
-10 -4 -10 -10z"/>
<path d="M200 480 c0 -5 5 -10 10 -10 6 0 10 5 10 10 0 6 -4 10 -10 10 -5 0
-10 -4 -10 -10z"/>
<path d="M340 330 c0 -5 4 -10 9 -10 6 0 13 5 16 10 3 6 -1 10 -9 10 -9 0 -16
-4 -16 -10z"/>
<path d="M440 306 c0 -8 -3 -23 -6 -33 -6 -16 -4 -15 16 3 12 12 19 27 16 33
-10 16 -26 14 -26 -3z"/>
<path d="M520 260 c0 -5 5 -10 10 -10 6 0 10 5 10 10 0 6 -4 10 -10 10 -5 0
-10 -4 -10 -10z"/>
<path d="M635 180 c4 -6 11 -8 16 -5 14 9 11 15 -7 15 -8 0 -12 -5 -9 -10z"/>
</g>
</svg>
